<svg width="46" height="46" viewBox="0 0 46 46" fill="none" xmlns="http://www.w3.org/2000/svg">
<path d="M36.125 6.125C37.6168 6.125 39.0476 6.71763 40.1025 7.77252C41.1574 8.82742 41.75 10.2582 41.75 11.75V34.25C41.75 35.7418 41.1574 37.1726 40.1025 38.2275C39.0476 39.2824 37.6168 39.875 36.125 39.875H9.875C8.38316 39.875 6.95242 39.2824 5.89752 38.2275C4.84263 37.1726 4.25 35.7418 4.25 34.25V11.75C4.25 10.2582 4.84263 8.82742 5.89752 7.77252C6.95242 6.71763 8.38316 6.125 9.875 6.125H36.125ZM23 13.625C20.5136 13.625 18.129 14.6127 16.3709 16.3709C14.6127 18.129 13.625 20.5136 13.625 23C13.625 25.4864 14.6127 27.871 16.3709 29.6291C18.129 31.3873 20.5136 32.375 23 32.375C25.4864 32.375 27.871 31.3873 29.6291 29.6291C31.3873 27.871 32.375 25.4864 32.375 23C32.375 20.5136 31.3873 18.129 29.6291 16.3709C27.871 14.6127 25.4864 13.625 23 13.625ZM23 17.375C24.4918 17.375 25.9226 17.9676 26.9775 19.0225C28.0324 20.0774 28.625 21.5082 28.625 23C28.625 24.4918 28.0324 25.9226 26.9775 26.9775C25.9226 28.0324 24.4918 28.625 23 28.625C21.5082 28.625 20.0774 28.0324 19.0225 26.9775C17.9676 25.9226 17.375 24.4918 17.375 23C17.375 21.5082 17.9676 20.0774 19.0225 19.0225C20.0774 17.9676 21.5082 17.375 23 17.375ZM36.125 11.75H34.25C33.7721 11.7505 33.3124 11.9335 32.9649 12.2616C32.6174 12.5897 32.4083 13.038 32.3803 13.5151C32.3523 13.9922 32.5075 14.462 32.8142 14.8284C33.121 15.1949 33.5561 15.4304 34.0306 15.4869L34.25 15.5H36.125C36.6029 15.4995 37.0626 15.3165 37.4101 14.9884C37.7576 14.6603 37.9667 14.212 37.9947 13.7349C38.0227 13.2578 37.8675 12.788 37.5608 12.4216C37.254 12.0551 36.8189 11.8196 36.3444 11.7631L36.125 11.75Z" fill="#6E6E6E"/>
</svg>
