<svg width="16" height="16" viewBox="0 0 16 16" fill="none" xmlns="http://www.w3.org/2000/svg">
<path d="M14.2998 7.4847H13.3732C13.2521 6.22441 12.6962 5.04553 11.8009 4.15027C10.9057 3.25501 9.72679 2.69915 8.4665 2.57803V1.65137C8.4665 1.51876 8.41383 1.39158 8.32006 1.29781C8.22629 1.20405 8.09911 1.15137 7.9665 1.15137C7.8339 1.15137 7.70672 1.20405 7.61295 1.29781C7.51918 1.39158 7.4665 1.51876 7.4665 1.65137V2.57803C6.21173 2.7052 5.03998 3.26388 4.15122 4.15872C3.26246 5.05355 2.71178 6.22909 2.59317 7.4847H1.6665C1.60084 7.4847 1.53582 7.49763 1.47516 7.52276C1.4145 7.54789 1.35938 7.58472 1.31295 7.63115C1.26652 7.67758 1.22969 7.7327 1.20456 7.79336C1.17944 7.85402 1.1665 7.91904 1.1665 7.9847C1.1665 8.05036 1.17944 8.11538 1.20456 8.17604C1.22969 8.2367 1.26652 8.29182 1.31295 8.33825C1.35938 8.38468 1.4145 8.42151 1.47516 8.44664C1.53582 8.47177 1.60084 8.4847 1.6665 8.4847H2.59317C2.71428 9.74499 3.27014 10.9239 4.16541 11.8191C5.06067 12.7144 6.23955 13.2703 7.49984 13.3914V14.318C7.49984 14.4506 7.55252 14.5778 7.64628 14.6716C7.74005 14.7654 7.86723 14.818 7.99984 14.818C8.13245 14.818 8.25962 14.7654 8.35339 14.6716C8.44716 14.5778 8.49984 14.4506 8.49984 14.318V13.3914C9.75967 13.269 10.9378 12.7128 11.8329 11.8177C12.7279 10.9227 13.2842 9.74453 13.4065 8.4847H14.3332C14.3988 8.4847 14.4639 8.47177 14.5245 8.44664C14.5852 8.42151 14.6403 8.38468 14.6867 8.33825C14.7332 8.29182 14.77 8.2367 14.7951 8.17604C14.8202 8.11538 14.8332 8.05036 14.8332 7.9847C14.8332 7.91904 14.8202 7.85402 14.7951 7.79336C14.77 7.7327 14.7332 7.67758 14.6867 7.63115C14.6403 7.58472 14.5852 7.54789 14.5245 7.52276C14.4639 7.49763 14.3988 7.4847 14.3332 7.4847H14.2998ZM7.9665 12.4114C7.09099 12.4114 6.23514 12.1517 5.50718 11.6653C4.77922 11.1789 4.21184 10.4876 3.8768 9.67871C3.54175 8.86984 3.45409 7.97979 3.62489 7.1211C3.7957 6.26241 4.2173 5.47365 4.83638 4.85457C5.45546 4.23549 6.24422 3.81389 7.1029 3.64309C7.96159 3.47229 8.85165 3.55995 9.66052 3.89499C10.4694 4.23004 11.1607 4.79741 11.6471 5.52538C12.1336 6.25334 12.3932 7.10919 12.3932 7.9847C12.3932 9.15934 11.927 10.286 11.097 11.1172C10.2671 11.9484 9.14114 12.4163 7.9665 12.418V12.4114Z" fill="#5E5E5E"/>
<path d="M10.9864 7.99152C10.9864 8.59042 10.8088 9.17586 10.4759 9.67373C10.143 10.1716 9.66992 10.5595 9.11648 10.7884C8.56304 11.0173 7.95414 11.0769 7.36684 10.9595C6.77955 10.8422 6.24026 10.5533 5.81724 10.1293C5.39422 9.70537 5.10648 9.16545 4.99045 8.57789C4.87442 7.99034 4.93531 7.38157 5.16542 6.82864C5.39552 6.2757 5.78449 5.80346 6.2831 5.47169C6.78171 5.13992 7.36754 4.96353 7.96644 4.96485C8.36359 4.96485 8.75685 5.04319 9.12369 5.19537C9.49052 5.34756 9.82374 5.5706 10.1043 5.85174C10.3848 6.13288 10.6071 6.46659 10.7585 6.83377C10.9098 7.20094 10.9873 7.59437 10.9864 7.99152Z" fill="#5E5E5E"/>
</svg>
