<svg width="28" height="28" viewBox="0 0 28 28" fill="none" xmlns="http://www.w3.org/2000/svg">
<g clip-path="url(#clip0_184_8284)">
<path d="M26.3154 21.4258C26.3154 22.0225 26.0784 22.5948 25.6564 23.0168C25.2345 23.4387 24.6622 23.6758 24.0654 23.6758H3.81543C3.21869 23.6758 2.6464 23.4387 2.22444 23.0168C1.80248 22.5948 1.56543 22.0225 1.56543 21.4258V9.05078C1.56543 8.45404 1.80248 7.88175 2.22444 7.45979C2.6464 7.03783 3.21869 6.80078 3.81543 6.80078H8.31543L10.5654 3.42578H17.3154L19.5654 6.80078H24.0654C24.6622 6.80078 25.2345 7.03783 25.6564 7.45979C26.0784 7.88175 26.3154 8.45404 26.3154 9.05078V21.4258Z" fill="#F8D5FF"/>
<path d="M13.9404 19.1758C16.4257 19.1758 18.4404 17.1611 18.4404 14.6758C18.4404 12.1905 16.4257 10.1758 13.9404 10.1758C11.4551 10.1758 9.44043 12.1905 9.44043 14.6758C9.44043 17.1611 11.4551 19.1758 13.9404 19.1758Z" fill="#F8D5FF"/>
<path d="M26.3154 21.4258C26.3154 22.0225 26.0784 22.5948 25.6564 23.0168C25.2345 23.4387 24.6622 23.6758 24.0654 23.6758H3.81543C3.21869 23.6758 2.6464 23.4387 2.22444 23.0168C1.80248 22.5948 1.56543 22.0225 1.56543 21.4258V9.05078C1.56543 8.45404 1.80248 7.88175 2.22444 7.45979C2.6464 7.03783 3.21869 6.80078 3.81543 6.80078H8.31543L10.5654 3.42578H17.3154L19.5654 6.80078H24.0654C24.6622 6.80078 25.2345 7.03783 25.6564 7.45979C26.0784 7.88175 26.3154 8.45404 26.3154 9.05078V21.4258Z" stroke="#1E1E1E" stroke-width="2.5" stroke-linecap="round" stroke-linejoin="round"/>
<path d="M13.9404 19.1758C16.4257 19.1758 18.4404 17.1611 18.4404 14.6758C18.4404 12.1905 16.4257 10.1758 13.9404 10.1758C11.4551 10.1758 9.44043 12.1905 9.44043 14.6758C9.44043 17.1611 11.4551 19.1758 13.9404 19.1758Z" stroke="#1E1E1E" stroke-width="2.5" stroke-linecap="round" stroke-linejoin="round"/>
</g>
<defs>
<clipPath id="clip0_184_8284">
<rect width="27" height="27" fill="white" transform="translate(0.44043 0.0507812)"/>
</clipPath>
</defs>
</svg>
