<svg width="25" height="25" viewBox="0 0 25 25" fill="none" xmlns="http://www.w3.org/2000/svg">
<path fill-rule="evenodd" clip-rule="evenodd" d="M14.5667 2.64808C14.6573 2.82412 14.6802 3.05016 14.725 3.50225C14.8105 4.35641 14.8532 4.7835 15.0323 5.01891C15.144 5.16508 15.2923 5.27909 15.4623 5.34935C15.6322 5.4196 15.8178 5.44361 16 5.41891C16.2917 5.38037 16.625 5.1085 17.2896 4.56475C17.6407 4.2762 17.8167 4.13245 18.0052 4.07204C18.2454 3.99531 18.5052 4.00826 18.7365 4.1085C18.9188 4.18766 19.0803 4.34808 19.4 4.66891L20.3313 5.60016C20.6521 5.921 20.8125 6.08141 20.8917 6.2637C20.9919 6.49501 21.0049 6.75482 20.9282 6.99496C20.8678 7.1835 20.724 7.35954 20.4365 7.71058C19.8917 8.3762 19.6198 8.7085 19.5803 9.0012C19.5559 9.18339 19.5801 9.36878 19.6506 9.53856C19.721 9.70834 19.8351 9.85645 19.9813 9.96787C20.2157 10.147 20.6438 10.1897 21.499 10.2752C21.95 10.32 22.1761 10.3429 22.3532 10.4335C22.5766 10.5493 22.7505 10.7421 22.8428 10.9762C22.9167 11.1606 22.9167 11.3877 22.9167 11.8418V13.1585C22.9167 13.6127 22.9167 13.8397 22.8438 14.0231C22.7512 14.2579 22.5765 14.4511 22.3521 14.5668C22.1761 14.6575 21.95 14.6804 21.498 14.7252C20.6438 14.8106 20.2167 14.8533 19.9813 15.0325C19.8351 15.1441 19.7211 15.2924 19.6509 15.4624C19.5806 15.6324 19.5566 15.8179 19.5813 16.0002C19.6209 16.2918 19.8927 16.6252 20.4365 17.2897C20.724 17.6408 20.8678 17.8158 20.9282 18.0054C21.0049 18.2455 20.9919 18.5053 20.8917 18.7366C20.8125 18.9189 20.6521 19.0793 20.3313 19.4002L19.4 20.3304C19.0792 20.6522 18.9188 20.8127 18.7365 20.8908C18.5052 20.991 18.2454 21.004 18.0052 20.9272C17.8167 20.8668 17.6407 20.7231 17.2896 20.4356C16.624 19.8918 16.2917 19.62 16 19.5814C15.8178 19.5567 15.6322 19.5807 15.4623 19.651C15.2923 19.7212 15.144 19.8352 15.0323 19.9814C14.8532 20.2158 14.8105 20.6429 14.725 21.4981C14.6802 21.9502 14.6573 22.1762 14.5667 22.3522C14.4513 22.5764 14.2584 22.7511 14.024 22.8439C13.8396 22.9168 13.6125 22.9168 13.1584 22.9168H11.8417C11.3875 22.9168 11.1605 22.9168 10.9771 22.8439C10.7423 22.7513 10.5491 22.5766 10.4334 22.3522C10.3427 22.1762 10.3198 21.9502 10.275 21.4981C10.1896 20.6439 10.1469 20.2168 9.96775 19.9814C9.85621 19.8354 9.70804 19.7215 9.53827 19.6513C9.3685 19.581 9.18317 19.5569 9.00108 19.5814C8.70837 19.62 8.37608 19.8918 7.71046 20.4356C7.35942 20.7241 7.18337 20.8679 6.99483 20.9283C6.7547 21.005 6.49489 20.9921 6.26358 20.8918C6.08129 20.8127 5.91983 20.6522 5.60004 20.3314L4.66879 19.4002C4.34796 19.0793 4.18754 18.9189 4.10837 18.7366C4.00814 18.5053 3.99518 18.2455 4.07192 18.0054C4.13233 17.8168 4.27608 17.6408 4.56358 17.2897C5.10837 16.6241 5.38025 16.2918 5.41879 15.9991C5.44329 15.817 5.41919 15.6317 5.34894 15.4619C5.2787 15.2922 5.16479 15.144 5.01879 15.0325C4.78442 14.8533 4.35629 14.8106 3.50108 14.7252C3.05004 14.6804 2.824 14.6575 2.64692 14.5668C2.42353 14.451 2.24962 14.2582 2.15733 14.0241C2.08337 13.8397 2.08337 13.6127 2.08337 13.1585V11.8418C2.08337 11.3877 2.08337 11.1606 2.15629 10.9772C2.24888 10.7424 2.4236 10.5492 2.64796 10.4335C2.824 10.3429 3.05004 10.32 3.50212 10.2752C4.35629 10.1897 4.78442 10.147 5.01879 9.96787C5.16498 9.85645 5.27909 9.70834 5.34952 9.53856C5.41996 9.36878 5.44422 9.18339 5.41983 9.0012C5.38025 8.7085 5.10733 8.3762 4.56358 7.70954C4.27608 7.3585 4.13233 7.1835 4.07192 6.99391C3.99518 6.75378 4.00814 6.49397 4.10837 6.26266C4.18754 6.08141 4.34796 5.91995 4.66879 5.59912L5.60004 4.66891C5.92087 4.34808 6.08129 4.18662 6.26358 4.1085C6.49489 4.00826 6.7547 3.99531 6.99483 4.07204C7.18337 4.13245 7.35942 4.2762 7.71046 4.5637C8.37608 5.10745 8.70837 5.37933 9.00004 5.41891C9.18256 5.44368 9.36837 5.41961 9.53855 5.34916C9.70873 5.27871 9.85719 5.1644 9.96879 5.01787C10.1459 4.7835 10.1896 4.35641 10.275 3.5012C10.3198 3.05016 10.3427 2.82412 10.4334 2.64704C10.549 2.42326 10.7418 2.24896 10.9761 2.15641C11.1605 2.0835 11.3875 2.0835 11.8417 2.0835H13.1584C13.6125 2.0835 13.8396 2.0835 14.023 2.15641C14.2578 2.249 14.451 2.42372 14.5667 2.64808ZM12.5 16.6668C13.6051 16.6668 14.6649 16.2278 15.4463 15.4464C16.2277 14.665 16.6667 13.6052 16.6667 12.5002C16.6667 11.3951 16.2277 10.3353 15.4463 9.55388C14.6649 8.77248 13.6051 8.3335 12.5 8.3335C11.395 8.3335 10.3352 8.77248 9.55376 9.55388C8.77236 10.3353 8.33337 11.3951 8.33337 12.5002C8.33337 13.6052 8.77236 14.665 9.55376 15.4464C10.3352 16.2278 11.395 16.6668 12.5 16.6668Z" fill="black"/>
</svg>
