<svg width="23" height="22" viewBox="0 0 23 22" fill="none" xmlns="http://www.w3.org/2000/svg">
<path d="M11.5032 16.875L11.4122 16.966L11.3122 16.875C6.99118 12.9543 4.13479 10.3617 4.13479 7.73272C4.13479 5.91337 5.4993 4.54885 7.31866 4.54885C8.71957 4.54885 10.0841 5.45853 10.5662 6.69569H12.2582C12.7403 5.45853 14.1049 4.54885 15.5058 4.54885C17.3251 4.54885 18.6896 5.91337 18.6896 7.73272C18.6896 10.3617 15.8333 12.9543 11.5032 16.875ZM15.5058 2.72949C13.9229 2.72949 12.4038 3.46633 11.4122 4.62162C10.4207 3.46633 8.9015 2.72949 7.31866 2.72949C4.51685 2.72949 2.31543 4.92182 2.31543 7.73272C2.31543 11.1622 5.40834 13.9731 10.0932 18.2213L11.4122 19.4221L12.7312 18.2213C17.4161 13.9731 20.509 11.1622 20.509 7.73272C20.509 4.92182 18.3076 2.72949 15.5058 2.72949Z" fill="black"/>
</svg>
