<svg width="13" height="13" viewBox="0 0 13 13" fill="none" xmlns="http://www.w3.org/2000/svg">
<path d="M6.15584 10.7729C5.07857 10.7729 4.12526 10.4459 3.29593 9.79203C2.4666 9.13814 1.92796 8.30231 1.68001 7.28454C1.64581 7.15629 1.67146 7.03882 1.75696 6.93212C1.84246 6.82542 1.95788 6.76334 2.10323 6.7459C2.24003 6.7288 2.364 6.75445 2.47515 6.82285C2.58629 6.89125 2.66324 6.99385 2.70599 7.13064C2.91119 7.90013 3.3344 8.52854 3.97564 9.01588C4.61688 9.50322 5.34361 9.74689 6.15584 9.74689C7.15617 9.74689 8.00483 9.39857 8.70181 8.70193C9.39879 8.00529 9.74711 7.15664 9.74677 6.15596C9.74642 5.15529 9.39811 4.30681 8.70181 3.61051C8.00551 2.91422 7.15686 2.56572 6.15584 2.56504C5.56591 2.56504 5.01444 2.70184 4.50145 2.97543C3.98846 3.24903 3.5567 3.62522 3.20616 4.10401H4.10389C4.24923 4.10401 4.37115 4.15326 4.46965 4.25175C4.56814 4.35024 4.61722 4.47199 4.61688 4.617C4.61653 4.762 4.56729 4.88392 4.46913 4.98276C4.37098 5.08159 4.24923 5.13067 4.10389 5.12999H2.05193C1.90658 5.12999 1.78483 5.08074 1.68668 4.98225C1.58853 4.88375 1.53928 4.762 1.53894 4.617V2.56504C1.53894 2.41969 1.58819 2.29794 1.68668 2.19979C1.78518 2.10164 1.90692 2.05239 2.05193 2.05205C2.19693 2.05171 2.31885 2.10096 2.41769 2.19979C2.51653 2.29863 2.5656 2.42038 2.56492 2.56504V3.25758C3.00096 2.71039 3.53327 2.28717 4.16185 1.98793C4.79044 1.68868 5.4551 1.53906 6.15584 1.53906C6.79708 1.53906 7.39779 1.66098 7.95797 1.90482C8.51816 2.14866 9.0055 2.47766 9.41999 2.89181C9.83449 3.30597 10.1637 3.79331 10.4075 4.35383C10.6513 4.91436 10.7731 5.51507 10.7727 6.15596C10.7724 6.79686 10.6507 7.39757 10.4075 7.9581C10.1643 8.51862 9.83517 9.00596 9.41999 9.42012C9.00481 9.83427 8.51747 10.1634 7.95797 10.4076C7.39847 10.6518 6.79776 10.7736 6.15584 10.7729ZM6.66883 5.95077L7.9513 7.23324C8.04535 7.32729 8.09238 7.44699 8.09238 7.59233C8.09238 7.73768 8.04535 7.85738 7.9513 7.95143C7.85726 8.04548 7.73756 8.0925 7.59221 8.0925C7.44687 8.0925 7.32717 8.04548 7.23312 7.95143L5.79675 6.51506C5.74545 6.46376 5.70698 6.40613 5.68133 6.34218C5.65568 6.27823 5.64285 6.21188 5.64285 6.14314V4.10401C5.64285 3.95866 5.6921 3.83691 5.79059 3.73876C5.88909 3.64061 6.01084 3.59136 6.15584 3.59102C6.30085 3.59068 6.42277 3.63992 6.5216 3.73876C6.62044 3.8376 6.66952 3.95935 6.66883 4.10401V5.95077Z" fill="#919191"/>
</svg>
