<svg width="19" height="18" viewBox="0 0 19 18" fill="none" xmlns="http://www.w3.org/2000/svg">
<path d="M9.50294 14.8745L9.41197 14.9655L9.31191 14.8745C4.99093 10.9538 2.13454 8.36121 2.13454 5.73224C2.13454 3.91288 3.49906 2.54836 5.31842 2.54836C6.71932 2.54836 8.08384 3.45804 8.56597 4.6952H10.258C10.7401 3.45804 12.1046 2.54836 13.5055 2.54836C15.3249 2.54836 16.6894 3.91288 16.6894 5.73224C16.6894 8.36121 13.833 10.9538 9.50294 14.8745ZM13.5055 0.729004C11.9227 0.729004 10.4035 1.46584 9.41197 2.62114C8.42042 1.46584 6.90126 0.729004 5.31842 0.729004C2.51661 0.729004 0.315186 2.92133 0.315186 5.73224C0.315186 9.16172 3.40809 11.9726 8.09294 16.2208L9.41197 17.4216L10.731 16.2208C15.4158 11.9726 18.5088 9.16172 18.5088 5.73224C18.5088 2.92133 16.3073 0.729004 13.5055 0.729004Z" fill="black"/>
</svg>
