<svg width="25" height="24" viewBox="0 0 25 24" fill="none" xmlns="http://www.w3.org/2000/svg">
<path d="M11.6435 17.9815C15.6312 17.9815 19.0805 15.7683 20.855 12.4985C19.0805 9.2286 15.6312 7.01546 11.6435 7.01546C7.65589 7.01546 4.20659 9.2286 2.43209 12.4985C4.20659 15.7683 7.65589 17.9815 11.6435 17.9815ZM11.6435 6.01855C16.1894 6.01855 20.1173 8.66036 21.9715 12.4985C20.1173 16.3366 16.1894 18.9784 11.6435 18.9784C7.09762 18.9784 3.1698 16.3366 1.31555 12.4985C3.1698 8.66036 7.09762 6.01855 11.6435 6.01855ZM11.6435 8.01237C14.1358 8.01237 16.1296 10.0062 16.1296 12.4985C16.1296 14.9907 14.1358 16.9846 11.6435 16.9846C9.15125 16.9846 7.15744 14.9907 7.15744 12.4985C7.15744 10.0062 9.15125 8.01237 11.6435 8.01237ZM11.6435 9.00928C10.7181 9.00928 9.83065 9.37689 9.1763 10.0312C8.52196 10.6856 8.15435 11.5731 8.15435 12.4985C8.15435 13.4239 8.52196 14.3113 9.1763 14.9657C9.83065 15.62 10.7181 15.9876 11.6435 15.9876C12.5689 15.9876 13.4564 15.62 14.1107 14.9657C14.7651 14.3113 15.1327 13.4239 15.1327 12.4985C15.1327 11.5731 14.7651 10.6856 14.1107 10.0312C13.4564 9.37689 12.5689 9.00928 11.6435 9.00928Z" fill="#828282"/>
<path d="M1.17596 18.9784L23.108 6.01855" stroke="#828282"/>
</svg>
