<svg width="14" height="20" viewBox="0 0 14 20" fill="none" xmlns="http://www.w3.org/2000/svg">
<path d="M0.907746 17.5213V11.6809C0.907746 9.61559 1.54961 7.63486 2.69213 6.17447C3.83465 4.71407 5.38423 3.89363 7 3.89363C8.61577 3.89363 10.1654 4.71407 11.3079 6.17447C12.4504 7.63486 13.0923 9.61559 13.0923 11.6809V17.5213H13.8538V19.4682H0.146214V17.5213H0.907746ZM2.43081 11.6809H3.95387C3.95387 10.6482 4.2748 9.65788 4.84606 8.92768C5.41732 8.19749 6.19212 7.78726 7 7.78726V5.84045C5.78818 5.84045 4.62598 6.45578 3.76909 7.55108C2.91221 8.64637 2.43081 10.1319 2.43081 11.6809ZM6.23847 0H7.76153V2.92022H6.23847V0ZM12.9232 2.73333L14 4.10973L12.3856 6.17433L11.308 4.79793L12.9232 2.73333ZM0 4.10973L1.07681 2.73333L2.69201 4.79696L1.61597 6.1753L0 4.10973Z" fill="#393939"/>
</svg>
